<?xml version="1.0" encoding="UTF-8"?>
<svg width="360px" height="640px" viewBox="0 0 360 640" version="1.1" xmlns="http://www.w3.org/2000/svg" xmlns:xlink="http://www.w3.org/1999/xlink">
    <title>80609525-7AF2-4608-84C6-4768F1B8D1CC</title>
    <defs>
        <rect id="path-1" x="0" y="0" width="360" height="640"></rect>
    </defs>
    <g id="FINAL" stroke="none" stroke-width="1" fill="none" fill-rule="evenodd">
        <g id="img-bg-mobile">
            <mask id="mask-2" fill="white">
                <use xlink:href="#path-1"></use>
            </mask>
            <use id="Mask" fill="#EFEEEB" xlink:href="#path-1"></use>
            <path d="M55.950595,622.373981 C-9.19695406,493.276766 194.100023,480.557821 222.552029,301.812498 C247.056134,147.884045 409.642671,19.5180061 547.410867,114.364907 C693.945797,215.244805 719.284145,379.353842 519.43899,568.219084 C407.570621,673.942623 125.751085,760.690715 55.950595,622.373981" id="Fill-17" fill="#E8D5C7" mask="url(#mask-2)" transform="translate(353.234858, 387.910479) rotate(-5.000000) translate(-353.234858, -387.910479) "></path>
            <path d="M382.25831,648.360926 C352.696843,686.798928 285.821063,692.964112 247.383061,663.402645 C208.945058,633.841783 201.748619,578.717006 231.310085,540.279003 C260.871552,501.841001 315.996329,494.645166 354.434331,524.206632 C392.872333,553.767495 411.819776,609.922924 382.25831,648.360926" id="Fill-49" fill="#F5CBC6" mask="url(#mask-2)"></path>
            <path d="M19.6501814,144.91862 C38.7405008,144.91862 59.9767127,155.489087 56.3097413,187.489782 C53.8930738,208.581258 39.1432787,227.510808 20.0644673,226.904439 C-4.20442542,226.133436 -14.5243403,209.685594 -14.5243403,188.476233 C-14.5243403,167.267549 0.560538891,144.91862 19.6501814,144.91862" id="Fill-19" fill="#E1EAD9" mask="url(#mask-2)" transform="translate(21.100935, 185.918620) rotate(-107.000000) translate(-21.100935, -185.918620) "></path>
            <path d="M230.953877,182.536131 C215.907241,182.536131 200.650324,183.781296 185.352581,186.265794 C161.740454,190.10076 139.263004,196.689151 118.544274,205.848227 C87.0062474,219.790317 61.332129,239.107387 44.2973763,261.711523 C35.1881982,273.798665 28.5094086,286.851352 24.4456926,300.507343 C20.1467464,314.954887 18.7343928,330.239345 20.247189,345.935942 C22.3480609,367.721309 31.2391812,397.31496 45.2833345,429.265449 C59.8157687,462.325992 78.7203752,495.749424 99.9536316,525.922402 C123.171441,558.914579 148.255539,586.477019 172.493976,605.63014 C200.126726,627.465081 226.414841,638.536131 250.628328,638.536131 C277.031466,638.536131 304.324332,626.259445 329.556826,603.033535 C353.526659,580.970493 374.699002,550.124549 390.785706,513.831049 C411.512536,467.069154 421.927145,415.090072 420.111725,367.468906 C419.131923,341.780532 414.659956,317.688223 406.818948,295.862031 C398.414812,272.465693 386.155298,251.779363 370.381587,234.377509 C357.167868,219.800686 340.134087,207.994136 319.752974,199.286728 C300.516582,191.06825 278.81967,185.804406 255.265216,183.640676 C247.24503,182.904205 239.128939,182.536131 230.953877,182.536131" id="Fill-39" stroke="#F8F2EA" stroke-width="2" opacity="0.600000024" mask="url(#mask-2)" transform="translate(219.987184, 410.536131) rotate(-25.000000) translate(-219.987184, -410.536131) "></path>
            <path d="M29.7182687,-53.9391629 C84.6611393,-53.9391629 145.779993,-23.5168441 135.22627,68.5827188 C128.270983,129.285014 85.8203538,183.765182 30.9106036,182.020023 C-38.9364533,179.801038 -68.6376718,132.463348 -68.6376718,71.4217712 C-68.6376718,10.3821439 -25.2226536,-53.9391629 29.7182687,-53.9391629" id="Fill-19-Copy" fill="#F5CBC6" mask="url(#mask-2)" transform="translate(33.893607, 64.060837) rotate(-315.000000) translate(-33.893607, -64.060837) "></path>
        </g>
    </g>
</svg>